#!OML:ASF H:\Dans Jumps\Project 1\Capture day 1\Session 1\subject.ASF
:FULLY-SPECIFIED
:DEGREES
178
root 0.31644 13.5264 -16.6262 21.4387 -0.208322 -0.00515354
lowerback 27.7649 0.337323 -1.31587
upperback 11.173 0.206058 1.80991
thorax -2.8677 0.0146026 2.67413
lowerneck -17.4589 0.461136 -1.07491
upperneck 8.76069 1.19546 -2.49151
head 5.48509 0.351815 -0.502159
rclavicle 5.96354e-016 -6.06293e-015
rhumerus -52.9237 -20.1539 -55.9724
rradius 22.8987
rwrist 34.6388
rhand -18.1545 -21.2559
rfingers 7.12502
rthumb 8.12125 -51.0798
lclavicle 5.96354e-016 -6.06293e-015
lhumerus -44.3077 5.89096 75.5834
lradius 15.4949
lwrist 10.3968
lhand -30.6347 -8.88781
lfingers 7.12502
lthumb -3.93039 21.0557
rfemur -79.598 -4.14766 20.2977
rtibia 88.7098
rfoot -28.3957 -9.37907
rtoes -4.23839
lfemur -79.0326 6.70895 -24.9113
ltibia 87.213
lfoot -26.2859 11.5789
ltoes -5.30513
179
root 0.311554 13.4606 -16.6434 21.5362 -0.152219 0.051144
lowerback 28.1055 0.330728 -1.31274
upperback 11.2128 0.196847 1.8035
thorax -2.98043 0.0113151 2.67066
lowerneck -17.592 0.443399 -1.12422
upperneck 8.48553 1.17758 -2.48317
head 5.41879 0.344934 -0.493193
rclavicle -4.37326e-015 -3.37934e-015
rhumerus -53.6965 -20.1924 -55.3944
rradius 22.8276
rwrist 34.73
rhand -18.0565 -21.1908
rfingers 7.12502
rthumb 8.21576 -51.0111
lclavicle -4.37326e-015 -3.37934e-015
lhumerus -44.8386 6.15149 75.1213
lradius 15.3569
lwrist 10.2549
lhand -30.665 -8.90537
lfingers 7.12502
lthumb -3.95962 21.0376
rfemur -80.2297 -4.18946 20.2766
rtibia 89.3906
rfoot -28.5243 -9.47347
rtoes -4.26097
lfemur -79.6547 6.59801 -24.9608
ltibia 87.8641
lfoot -26.3728 11.6851
ltoes -5.3566
180
root 0.306682 13.3944 -16.6604 21.6293 -0.110357 0.100349
lowerback 28.4498 0.332941 -1.3107
upperback 11.253 0.19829 1.79863
thorax -3.09446 0.0130758 2.66643
lowerneck -17.7264 0.425924 -1.16763
upperneck 8.21891 1.15959 -2.47918
head 5.35547 0.337811 -0.486576
rclavicle 2.38542e-015 1.78906e-014
rhumerus -54.4996 -20.2246 -54.7978
rradius 22.7638
rwrist 34.8356
rhand -17.9921 -21.1054
rfingers 7.12502
rthumb 8.27798 -50.9232
lclavicle 2.38542e-015 1.78906e-014
lhumerus -45.3733 6.43838 74.6249
lradius 15.1928
lwrist 10.0817
lhand -30.7423 -8.98583
lfingers 7.12502
lthumb -4.03431 20.9557
rfemur -80.8568 -4.21013 20.2543
rtibia 90.0698
rfoot -28.6526 -9.57076
rtoes -4.27175
lfemur -80.2735 6.49779 -25.0046
ltibia 88.5171
lfoot -26.4548 11.8059
ltoes -5.42723
181
root 0.301743 13.3276 -16.6773 21.7214 -0.0776247 0.140401
lowerback 28.7948 0.341437 -1.30958
upperback 11.2925 0.207543 1.79915
thorax -3.2093 0.01841 2.66632
lowerneck -17.8663 0.410247 -1.21131
upperneck 7.96846 1.14529 -2.47969
head 5.29815 0.331934 -0.481005
rclavicle -6.95746e-015 1.08338e-014
rhumerus -55.3245 -20.2227 -54.2048
rradius 22.7184
rwrist 34.94
rhand -17.9843 -21.0308
rfingers 7.12502
rthumb 8.28553 -50.8483
lclavicle -6.95746e-015 1.08338e-014
lhumerus -45.9267 6.73333 74.1148
lradius 15.0352
lwrist 9.9024
lhand -30.8165 -9.04161
lfingers 7.12502
lthumb -4.10597 20.8986
rfemur -81.483 -4.21332 20.235
rtibia 90.7498
rfoot -28.7865 -9.65845
rtoes -4.22716
lfemur -80.8963 6.40864 -25.0401
ltibia 89.1747
lfoot -26.5362 11.929
ltoes -5.48987
182
root 0.296814 13.2603 -16.6943 21.816 -0.0529677 0.168639
lowerback 29.1377 0.355557 -1.30801
upperback 11.3292 0.224264 1.80687
thorax -3.32602 0.0271568 2.67156
lowerneck -18.0129 0.39708 -1.25519
upperneck 7.73236 1.1356 -2.48475
head 5.24649 0.327773 -0.476419
rclavicle 1.59028e-015 -5.96354e-016
rhumerus -56.1623 -20.1857 -53.6118
rradius 22.6727
rwrist 35.0499
rhand -18.0469 -20.9777
rfingers 7.12502
rthumb 8.2251 -50.7976
lclavicle 1.59028e-015 -5.96354e-016
lhumerus -46.5061 7.03913 73.5865
lradius 14.8971
lwrist 9.72921
lhand -30.7924 -9.03635
lfingers 7.12502
lthumb -4.08263 20.9043
rfemur -82.1113 -4.20001 20.2231
rtibia 91.4283
rfoot -28.9238 -9.73808
rtoes -4.12798
lfemur -81.5256 6.3287 -25.0638
ltibia 89.8355
lfoot -26.6153 12.056
ltoes -5.55222
183
root 0.291874 13.1927 -16.7112 21.9135 -0.0281648 0.18993
lowerback 29.479 0.3707 -1.30383
upperback 11.3623 0.243345 1.82074
thorax -3.44545 0.0369807 2.68129
lowerneck -18.1665 0.387718 -1.29815
upperneck 7.51099 1.1323 -2.49684
head 5.20066 0.326046 -0.473602
rclavicle -3.97569e-016 -1.19271e-014
rhumerus -57.0099 -20.1044 -53.031
rradius 22.6331
rwrist 35.1383
rhand -18.1377 -20.9488
rfingers 7.12502
rthumb 8.13744 -50.7721
lclavicle -3.97569e-016 -1.19271e-014
lhumerus -47.1181 7.35442 73.0416
lradius 14.7722
lwrist 9.52854
lhand -30.7359 -9.01015
lfingers 7.12502
lthumb -4.02809 20.9315
rfemur -82.7423 -4.18159 20.2171
rtibia 92.1054
rfoot -29.0636 -9.80512
rtoes -3.98302
lfemur -82.1603 6.24801 -25.0768
ltibia 90.4985
lfoot -26.6959 12.1822
ltoes -5.60452
184
root 0.286835 13.1247 -16.7281 22.0144 0.00148477 0.203105
lowerback 29.8219 0.384563 -1.29328
upperback 11.39 0.262998 1.84056
thorax -3.57117 0.0471809 2.69371
lowerneck -18.3237 0.3815 -1.34154
upperneck 7.2974 1.1339 -2.51059
head 5.15784 0.326514 -0.470794
rclavicle 8.15017e-015 -4.77083e-015
rhumerus -57.8663 -19.9785 -52.4675
rradius 22.5965
rwrist 35.2078
rhand -18.2555 -20.9459
rfingers 7.12502
rthumb 8.02375 -50.7736
lclavicle 8.15017e-015 -4.77083e-015
lhumerus -47.7708 7.64978 72.4988
lradius 14.6759
lwrist 9.34343
lhand -30.5958 -8.94872
lfingers 7.12502
lthumb -3.89283 20.9955
rfemur -83.3783 -4.16204 20.2217
rtibia 92.7799
rfoot -29.1986 -9.86697
rtoes -3.81141
lfemur -82.8017 6.16373 -25.0765
ltibia 91.1632
lfoot -26.7744 12.3099
ltoes -5.6628
185
root 0.281766 13.0564 -16.7449 22.1149 0.0365533 0.207325
lowerback 30.1688 0.396569 -1.27188
upperback 11.413 0.283672 1.86474
thorax -3.70337 0.0581022 2.70436
lowerneck -18.4822 0.375871 -1.38518
upperneck 7.08828 1.13662 -2.52481
head 5.11658 0.327497 -0.467998
rclavicle 2.5842e-015 -7.85199e-015
rhumerus -58.7395 -19.8194 -51.9151
rradius 22.5676
rwrist 35.2645
rhand -18.3542 -20.947
rfingers 7.12502
rthumb 7.92853 -50.7783
lclavicle 2.5842e-015 -7.85199e-015
lhumerus -48.4715 7.89851 71.9782
lradius 14.6152
lwrist 9.20243
lhand -30.461 -8.91802
lfingers 7.12502
lthumb -3.76263 21.0285
rfemur -84.0147 -4.14332 20.2386
rtibia 93.4502
rfoot -29.3255 -9.92952
rtoes -3.64894
lfemur -83.4455 6.07696 -25.0616
ltibia 91.8295
lfoot -26.8559 12.4306
ltoes -5.70331
186
root 0.276721 12.9878 -16.7618 22.2108 0.0806989 0.204085
lowerback 30.5258 0.403298 -1.23609
upperback 11.4322 0.302047 1.89049
thorax -3.84376 0.0683033 2.70924
lowerneck -18.6355 0.369831 -1.43571
upperneck 6.87374 1.13875 -2.5261
head 5.07256 0.329152 -0.460094
rclavicle -4.57205e-015 -1.27222e-014
rhumerus -59.6314 -19.6424 -51.3671
rradius 22.5515
rwrist 35.288
rhand -18.3874 -20.9376
rfingers 7.12502
rthumb 7.89647 -50.7701
lclavicle -4.57205e-015 -1.27222e-014
lhumerus -49.2199 8.0699 71.5037
lradius 14.5885
lwrist 9.15439
lhand -30.1946 -8.87555
lfingers 7.12502
lthumb -3.50543 21.0754
rfemur -84.6469 -4.13135 20.2681
rtibia 94.1151
rfoot -29.4417 -9.99772
rtoes -3.5238
lfemur -84.0859 5.98436 -25.033
ltibia 92.4955
lfoot -26.9348 12.5512
ltoes -5.75376
187
root 0.27172 12.9189 -16.7786 22.2971 0.134998 0.195041
lowerback 30.8988 0.405075 -1.18625
upperback 11.4484 0.318627 1.91778
thorax -3.99372 0.0780028 2.70839
lowerneck -18.7843 0.361144 -1.49429
upperneck 6.65617 1.13747 -2.51248
head 5.02661 0.330182 -0.446538
rclavicle 7.95139e-016 2.18663e-015
rhumerus -60.5483 -19.4542 -50.8181
rradius 22.551
rwrist 35.2892
rhand -18.3734 -20.9133
rfingers 7.12502
rthumb 7.90992 -50.7453
lclavicle 7.95139e-016 2.18663e-015
lhumerus -50.0156 8.16469 71.0806
lradius 14.5985
lwrist 9.2142
lhand -29.8979 -8.83894
lfingers 7.12502
lthumb -3.21883 21.1165
rfemur -85.2696 -4.13077 20.3103
rtibia 94.775
rfoot -29.5488 -10.07
rtoes -3.44688
lfemur -84.7185 5.88871 -24.9944
ltibia 93.1603
lfoot -27.0117 12.6668
ltoes -5.80084
188
root 0.266777 12.8501 -16.7956 22.367 0.193204 0.177695
lowerback 31.2969 0.405252 -1.12452
upperback 11.4626 0.336956 1.94533
thorax -4.15658 0.0888387 2.70056
lowerneck -18.9316 0.35069 -1.55742
upperneck 6.43869 1.13338 -2.48402
head 4.98022 0.330897 -0.427865
rclavicle -6.55989e-015 -3.18055e-015
rhumerus -61.4963 -19.2548 -50.2731
rradius 22.5759
rwrist 35.25
rhand -18.3244 -20.8682
rfingers 7.12502
rthumb 7.95729 -50.6984
lclavicle -6.55989e-015 -3.18055e-015
lhumerus -50.8587 8.16615 70.7241
lradius 14.6483
lwrist 9.41493
lhand -29.5937 -8.82305
lfingers 7.12502
lthumb -2.92506 21.1366
rfemur -85.8732 -4.13616 20.367
rtibia 95.4261
rfoot -29.6488 -10.1484
rtoes -3.42135
lfemur -85.3346 5.79805 -24.9457
ltibia 93.8208
lfoot -27.0853 12.7776
ltoes -5.84808
